<?xml version="1.0" encoding="UTF-8" standalone="no"?>
<!-- Created with Inkscape (http://www.inkscape.org/) -->
<svg
   xmlns:svg="http://www.w3.org/2000/svg"
   xmlns="http://www.w3.org/2000/svg"
   version="1.0"
   width="200"
   height="200"
   viewBox="0 0 60.9087 60.9084"
   id="svg2"
   xml:space="preserve">
 <defs
   id="defs4">
  <style
   type="text/css"
   id="style6" />
 </defs>
 <g
   transform="matrix(1,0,0,1.0000049,0,-1.4922558e-4)"
   style="stroke:none"
   id="Ebene_x0020_1">
  
  <polygon
   points="60.9087,60.9084 0,60.9084 0,0 60.9087,0 60.9087,60.9084 "
   style="fill:#ffffff;stroke:none"
   id="polygon10" />
  <path
   d="M 1.11782,41.6199 L 1.11782,59.7816 L 59.79132,59.7816 L 59.79132,50.71808 C 53.27937,52.75696 44.67652,54.2515 36.65192,54.2515 C 18.01982,54.2515 2.62792,48.45786 1.11782,41.6199 L 1.11782,41.6199 z "
   style="fill:#000000;stroke:none"
   id="path12" />
  <path
   d="M 9.40584,31.9717 C 10.126313,30.61265 11.34317,29.15467 13.20724,27.36182 L 20.68414,20.11728 C 12.9937,20.220273 6.11164,21.40619 1.11774,22.9903 L 1.1178599,39.3895 C 1.7588399,36.57163 4.7697399,34.00819 9.4058799,31.97171 L 9.40584,31.9717 z "
   style="fill:#000000;stroke:none"
   id="path14" />
  <polygon
   points="35.7457,42.1306 37.0361,35.7462 29.0579,42.1306 35.7457,42.1306 "
   style="fill:#000000;stroke:none"
   id="polygon16" />
  <path
   d="M 19.2206,37.9941 C 21.95022,37.9941 24.32446,36.15773 24.32446,34.06429 C 24.32446,32.71111 23.01049,31.80815 21.04019,31.80815 C 18.16034,31.80815 15.7343,33.51491 15.7343,35.57777 C 15.73442,36.99617 17.14911,37.99421 19.2206,37.99409 L 19.2206,37.9941 z "
   style="fill:#000000;stroke:none"
   id="path18" />
  <path
   d="M 43.2127,39.2911 L 42.543903,42.14961 L 46.282593,42.14961 L 45.625427,45.96288 L 41.886257,45.96288 L 40.774797,51.01962 L 33.650637,51.01962 L 34.762577,45.96288 L 22.025877,45.916599 L 22.988666,42.288219 L 24.103606,41.400247 C 22.571896,41.841355 20.871726,42.086789 19.068686,42.086789 C 13.277566,42.086789 9.274496,39.783529 8.648386,36.220489 C 7.926834,37.323199 7.539676,38.484059 7.539676,39.682809 C 7.539676,47.011159 21.934976,52.953709 39.691776,52.953709 C 46.450846,52.953589 53.611976,51.779779 59.791376,50.116659 L 59.791376,30.304459 C 58.805806,33.568589 52.452836,37.519139 43.212676,39.291129 L 43.2127,39.2911 z "
   style="fill:#000000;stroke:none"
   id="path20" />
  <path
   d="M 23.7685,28.0713 C 28.31627,28.0713 31.50055,30.39135 31.50055,33.74204 C 31.50055,34.453281 31.372498,35.13898 31.136657,35.79339 L 39.965417,28.75484 L 45.676567,28.75484 L 43.374987,38.59795 C 49.292957,36.35008 52.741977,32.47555 52.885737,29.76343 C 53.13153,25.07454 43.021767,21.22602 28.526537,20.31239 L 20.332997,28.3931 L 20.433352,28.457126 C 21.444582,28.199703 22.555202,28.071291 23.768462,28.071291 L 23.7685,28.0713 z "
   style="fill:#000000;stroke:none"
   id="path22" />
  <path
   d="M 1.11782,22.4098 L 1.11782,1.1268 L 59.79132,1.1268 L 59.79132,28.5761 C 58.3138,23.81263 44.76902,19.52672 27.32612,19.19041 C 17.01612,18.991737 7.44002,20.49419 1.11772,22.40982 L 1.11782,22.4098 z M 16.38292,15.50626 L 11.51094,4.54406 L 8.34561,4.54406 L 3.92374,15.50626 L 6.81894,15.50626 L 7.63749,13.33489 L 12.53776,13.33489 L 13.441079,15.50626 L 16.382919,15.50626 L 16.38292,15.50626 z M 11.73432,11.42274 L 8.36168,11.42274 L 9.96977,7.16237 L 11.73432,11.42274 z M 29.45242,15.50626 L 29.45242,4.54406 L 27.07147,4.54406 L 23.55004,8.60935 L 20.02537,4.54406 L 17.65113,4.54406 L 17.65113,15.50626 L 20.38519,15.50626 L 20.38519,8.65691 L 23.34106,12.10065 L 23.759507,12.10065 L 26.713817,8.65691 L 26.713817,15.50626 L 29.452427,15.50626 L 29.45242,15.50626 z M 42.75712,10.04066 C 42.75712,7.03527 40.70121,4.54413 36.69623,4.54413 L 31.8601,4.5440101 L 31.8601,15.50621 L 36.3918,15.50621 C 40.76452,15.50621 42.75712,13.18988 42.75712,10.04061 L 42.75712,10.04066 z M 39.94297,10.024114 C 39.94297,11.632204 39.125019,13.494714 36.37861,13.494714 L 34.59499,13.494594 L 34.59499,6.554844 L 36.34348,6.554844 C 38.93342,6.554844 39.94285,8.144344 39.94297,10.024124 L 39.94297,10.024114 z "
   style="fill:#000000;stroke:none"
   id="path24" />
  <polygon
   points="56.6752,4.5082 45.3321,4.5082 48.4791,7.65987 53.5215,7.65987 53.5215,12.6996 56.6752,15.8517 56.6752,4.5082 "
   style="fill:#009e60;stroke:none"
   id="polygon26" />
  <polygon
   points="48.4791,12.6996 48.4791,8.16404 45.3321,11.3157 45.3321,15.8517 49.8654,15.8517 53.0162,12.6996 48.4791,12.6996 "
   style="fill:#009e60;stroke:none"
   id="polygon28" />
  <polygon
   points="54.8243,46.5202 54.8243,48.4219 54.6661,48.4219 54.6661,46.5202 53.9031,46.5202 53.9031,46.3888 55.5872,46.3888 55.5872,46.5202 54.8243,46.5202 "
   style="fill:#ffffff;stroke:none"
   id="polygon30" />
  <polygon
   points="57.629,48.4219 57.629,46.6184 57.6232,46.6184 56.8541,47.5694 56.085,46.6184 56.0792,46.6184 56.0792,48.4219 55.921,48.4219 55.921,46.3888 56.0792,46.3888 56.8541,47.3338 57.629,46.3888 57.7872,46.3888 57.7872,48.4219 57.629,48.4219 "
   style="fill:#ffffff;stroke:none"
   id="polygon32" />
 </g>
</svg>